<svg xmlns="http://www.w3.org/2000/svg" width="60" height="40" viewBox="0 0 60 40" aria-hidden="true" role="img">
  <rect width="60" height="40" fill="#012169"/>
  <path fill="#FFF" d="M0 0h6.7L26 12.5V0h8v12.5L53.3 0H60v5L42.5 15H60v10H42.5L60 35v5h-6.7L34 27.5V40h-8V27.5L6.7 40H0v-5l17.5-10H0V15h17.5L0 5z"/>
  <path fill="#C8102E" d="M25 0h10v16h25v8H35v16H25V24H0v-8h25z"/>
  <path fill="#C8102E" d="m0 0 20 13h-4.5L0 2.8V0Zm60 0v2.8L44.5 13H40L60 0ZM20 27 0 40v-2.8L15.5 27H20Zm20 0h4.5L60 37.2V40L40 27Z"/>
</svg>
